<svg xmlns="http://www.w3.org/2000/svg" width="40" height="40" viewBox="0 0 40 40">
  <g id="Group_5219" data-name="Group 5219" transform="translate(-0.299)">
    <circle id="Ellipse_92" data-name="Ellipse 92" cx="20" cy="20" r="20" transform="translate(0.299)" fill="#fff"/>
    <path id="Ellipse_92_-_Outline" data-name="Ellipse 92 - Outline" d="M20,2.5A17.5,17.5,0,0,0,7.626,32.374,17.5,17.5,0,0,0,32.374,7.626,17.385,17.385,0,0,0,20,2.5M20,0A20,20,0,1,1,0,20,20,20,0,0,1,20,0Z" transform="translate(0.299)" fill="#27a81a"/>
    <path id="check" d="M9.464,19.27A1.25,1.25,0,0,1,8.58,18.9L3.116,13.44a1.25,1.25,0,0,1,1.768-1.768l4.58,4.58L20.6,5.116a1.25,1.25,0,0,1,1.768,1.768L10.348,18.9A1.25,1.25,0,0,1,9.464,19.27Z" transform="translate(7.575 8.974)" fill="#27a81a"/>
  </g>
</svg>
