<svg xmlns="http://www.w3.org/2000/svg" width="411.786" height="101.596" viewBox="0 0 411.786 101.596">
  <g id="Group_5257" data-name="Group 5257" transform="translate(607 -18964.254)">
    <path id="Path_2099" data-name="Path 2099" d="M-338.515-35.629a68.071,68.071,0,0,1,7.07-1.343,49.512,49.512,0,0,1,6.6-.474q7.347,0,11.1,3.792T-310-21.488V0h-6.478V-20.3a21.568,21.568,0,0,0-.632-5.767,8.286,8.286,0,0,0-1.777-3.436,6.043,6.043,0,0,0-2.765-1.7,12.47,12.47,0,0,0-3.516-.474,30.474,30.474,0,0,0-3.357.2q-1.777.2-3.437.514V0h-6.557ZM-293.327,0V-31.2h-7.742v-5.451h7.742v-3.318a18.263,18.263,0,0,1,1.185-7.07,12.554,12.554,0,0,1,3.121-4.542,11.06,11.06,0,0,1,4.5-2.449,20.189,20.189,0,0,1,5.411-.711,26.687,26.687,0,0,1,5.728.632,48.771,48.771,0,0,1,5.411,1.5l-1.185,5.609a20.737,20.737,0,0,0-4.345-1.5,22.387,22.387,0,0,0-5.293-.632,10.9,10.9,0,0,0-3.121.434,6.191,6.191,0,0,0-2.568,1.5,7.242,7.242,0,0,0-1.738,2.844,13.478,13.478,0,0,0-.632,4.464v3.239h14.773V-31.2h-14.773V0Zm61.7-18.328a23.788,23.788,0,0,1-1.224,7.86,18.1,18.1,0,0,1-3.437,6.043,15.241,15.241,0,0,1-5.293,3.911A16.213,16.213,0,0,1-248.3.869a15.752,15.752,0,0,1-6.6-1.383,15.341,15.341,0,0,1-5.253-3.911,18.1,18.1,0,0,1-3.437-6.043,23.788,23.788,0,0,1-1.224-7.86,24.141,24.141,0,0,1,1.224-7.9,17.6,17.6,0,0,1,3.437-6.044,15.574,15.574,0,0,1,5.253-3.871,15.752,15.752,0,0,1,6.6-1.382,16.213,16.213,0,0,1,6.715,1.382,15.47,15.47,0,0,1,5.293,3.871,17.6,17.6,0,0,1,3.437,6.044A24.141,24.141,0,0,1-231.628-18.328Zm-6.715,0q0-6.241-2.686-9.836a8.6,8.6,0,0,0-7.268-3.595,8.42,8.42,0,0,0-7.15,3.595q-2.646,3.595-2.646,9.836,0,6.162,2.646,9.756a8.42,8.42,0,0,0,7.15,3.594,8.6,8.6,0,0,0,7.268-3.594Q-238.343-12.166-238.343-18.328Zm38.078.079q0-6.4-3-9.914a9.8,9.8,0,0,0-7.821-3.515,29.3,29.3,0,0,0-4.227.237,13.255,13.255,0,0,0-2.41.553V-7.742a10.71,10.71,0,0,0,3.239,1.9,11.618,11.618,0,0,0,4.424.869A9.092,9.092,0,0,0-205.6-6a8.625,8.625,0,0,0,3.042-2.8A12.526,12.526,0,0,0-200.818-13,23.477,23.477,0,0,0-200.265-18.249Zm6.715,0a26.438,26.438,0,0,1-1.066,7.7A17.936,17.936,0,0,1-197.7-4.5a14.147,14.147,0,0,1-4.937,3.95A14.978,14.978,0,0,1-209.271.869a16.8,16.8,0,0,1-5.135-.711,10.829,10.829,0,0,1-3.318-1.58V13.035h-6.557V-35.55q2.133-.632,5.491-1.264a41.961,41.961,0,0,1,7.7-.632A18.6,18.6,0,0,1-203.9-36.1a15.46,15.46,0,0,1,5.53,3.832,17.4,17.4,0,0,1,3.555,6.044A23.7,23.7,0,0,1-193.55-18.249Zm18.249-24.1a5,5,0,0,1-3.555-1.422,5.078,5.078,0,0,1-1.5-3.871,5.078,5.078,0,0,1,1.5-3.871A5,5,0,0,1-175.3-52.93a4.956,4.956,0,0,1,3.594,1.422,5.151,5.151,0,0,1,1.462,3.871,5.151,5.151,0,0,1-1.462,3.871A4.956,4.956,0,0,1-175.3-42.344ZM-176.96-31.2h-10.586v-5.451h17.064v22.515q0,5.451,1.5,7.308a5.447,5.447,0,0,0,4.5,1.856,15.34,15.34,0,0,0,4.227-.553,14.08,14.08,0,0,0,3.042-1.185l.948,5.53q-.474.237-1.343.592a18,18,0,0,1-2.014.671q-1.146.316-2.528.553a17.046,17.046,0,0,1-2.884.237A15.174,15.174,0,0,1-170.8-.079a8.426,8.426,0,0,1-3.673-2.844,11.718,11.718,0,0,1-1.936-4.7,34.005,34.005,0,0,1-.553-6.518Zm43.687-6.32q7.426,0,11.455,4.621t4.029,14.023v2.291h-26.228q.4,5.688,3.753,8.65t9.441,2.963A27.306,27.306,0,0,0-124.9-5.53a17.145,17.145,0,0,0,3.713-1.185l.869,5.53A19.464,19.464,0,0,1-124.583.158a31.018,31.018,0,0,1-6.952.711A22.011,22.011,0,0,1-139.87-.592a16.609,16.609,0,0,1-5.965-3.989,16.335,16.335,0,0,1-3.555-6.043,23.725,23.725,0,0,1-1.185-7.624,22.25,22.25,0,0,1,1.5-8.532,17.533,17.533,0,0,1,3.95-6,16.31,16.31,0,0,1,5.53-3.555A17.466,17.466,0,0,1-133.273-37.525Zm8.848,15.642a10.643,10.643,0,0,0-2.449-7.386A8.288,8.288,0,0,0-133.352-32a9.665,9.665,0,0,0-4.148.869,10.436,10.436,0,0,0-3.2,2.291,11.159,11.159,0,0,0-2.133,3.239,13.462,13.462,0,0,0-1.027,3.713Zm41.949-9.875Q-83.9-30.1-86.347-27.136T-91.6-20.58q-2.8,3.595-5.57,7.544t-4.9,7.505h20.145V0h-27.966V-4.345a79.725,79.725,0,0,1,4.147-6.912q2.489-3.753,5.174-7.426t5.254-6.991q2.568-3.318,4.464-5.53h-18.012v-5.451h26.386Zm25.043,27.1q2.449,0,4.384-.158a32.025,32.025,0,0,0,3.2-.395v-10.9a18.543,18.543,0,0,0-3.042-.632,28.405,28.405,0,0,0-3.753-.237,22.594,22.594,0,0,0-3.555.277,9.848,9.848,0,0,0-3.081.988,6.619,6.619,0,0,0-2.212,1.856,4.635,4.635,0,0,0-.869,2.884q0,3.555,2.409,4.938A13.1,13.1,0,0,0-57.433-4.661Zm-.632-32.864A20.243,20.243,0,0,1-51.153-36.5a11.755,11.755,0,0,1,4.542,2.844,10.136,10.136,0,0,1,2.449,4.424,21.568,21.568,0,0,1,.711,5.688V-.632q-2.291.4-6.043.948a52.772,52.772,0,0,1-7.7.553A32.84,32.84,0,0,1-63.042.355,15.184,15.184,0,0,1-68.1-1.462a9.9,9.9,0,0,1-3.555-3.595A11.434,11.434,0,0,1-73-10.9a9.737,9.737,0,0,1,1.382-5.333,11.056,11.056,0,0,1,3.555-3.515,15.459,15.459,0,0,1,4.977-1.936,27.254,27.254,0,0,1,5.648-.592,33.169,33.169,0,0,1,7.584.869v-1.817a14.185,14.185,0,0,0-.355-3.2,7.1,7.1,0,0,0-1.343-2.8,6.826,6.826,0,0,0-2.686-2.015A10.932,10.932,0,0,0-58.618-32a32.515,32.515,0,0,0-5.925.474,27.624,27.624,0,0,0-3.871.948l-.79-5.372a17.667,17.667,0,0,1,4.464-1.106A44.492,44.492,0,0,1-58.065-37.525ZM-11.771-9.164A3.932,3.932,0,0,0-13.39-12.4a16.1,16.1,0,0,0-4.029-2.212q-2.41-.948-5.254-1.857a28.69,28.69,0,0,1-5.253-2.251,13.876,13.876,0,0,1-4.029-3.318,7.838,7.838,0,0,1-1.62-5.135,9.2,9.2,0,0,1,3.595-7.386q3.594-2.962,11.257-2.962a46.086,46.086,0,0,1,6.2.434,34.345,34.345,0,0,1,5.491,1.146L-8.216-30.1a12.779,12.779,0,0,0-1.738-.671,22.1,22.1,0,0,0-2.528-.632q-1.422-.276-3.042-.434T-18.644-32q-8.532,0-8.532,4.661a3.359,3.359,0,0,0,1.619,2.8,18.832,18.832,0,0,0,4.068,2.093q2.449.948,5.293,1.936a30.309,30.309,0,0,1,5.293,2.41,14.47,14.47,0,0,1,4.069,3.436,7.874,7.874,0,0,1,1.619,5.1,8.87,8.87,0,0,1-3.871,7.7Q-12.956.869-21.33.869A35.512,35.512,0,0,1-28.282.237a28.49,28.49,0,0,1-6-1.9l1.264-5.925A37.966,37.966,0,0,0-27.215-5.49a24.684,24.684,0,0,0,6.517.829Q-11.771-4.661-11.771-9.164Z" transform="translate(-190 19019)" fill="#0148ad"/>
    <path id="Path_2100" data-name="Path 2100" d="M-261.25,0l-.025-17.5h-2.05l-7.2,12.3-7.3-12.3h-2.05V0h2.4V-12.675l6.325,10.55H-270l6.325-10.625L-263.65,0Zm16.875-6.55c0-4.075-2.725-6.825-6.55-6.825a6.489,6.489,0,0,0-6.65,6.75c0,3.95,2.85,6.775,7.125,6.775A6.651,6.651,0,0,0-245.225-2l-1.325-1.55a4.947,4.947,0,0,1-3.825,1.6,4.488,4.488,0,0,1-4.8-3.875h10.75C-244.4-6.05-244.375-6.35-244.375-6.55Zm-6.55-4.8a4.132,4.132,0,0,1,4.25,3.8h-8.5A4.13,4.13,0,0,1-250.925-11.35Zm12.175.325V-13.25h-2.3V0h2.4V-6.6c0-2.9,1.6-4.475,4.175-4.475a4.238,4.238,0,0,1,.55.025v-2.325C-236.25-13.375-237.9-12.575-238.75-11.025ZM-225.325.15a5.928,5.928,0,0,0,5.4-2.85l-1.825-1.15a4.131,4.131,0,0,1-3.6,1.9,4.39,4.39,0,0,1-4.55-4.675,4.4,4.4,0,0,1,4.55-4.65,4.131,4.131,0,0,1,3.6,1.9l1.825-1.175a5.909,5.909,0,0,0-5.4-2.825,6.62,6.62,0,0,0-7,6.75A6.64,6.64,0,0,0-225.325.15ZM-212-13.375a8.824,8.824,0,0,0-5.475,1.7l1,1.8a6.7,6.7,0,0,1,4.2-1.425c2.375,0,3.55,1.175,3.55,3.2v.475h-3.8c-3.95,0-5.325,1.75-5.325,3.875,0,2.3,1.9,3.9,4.9,3.9a4.919,4.919,0,0,0,4.35-1.9V0h2.275V-8C-206.325-11.625-208.375-13.375-212-13.375ZM-212.55-1.7c-1.825,0-2.925-.825-2.925-2.15,0-1.125.675-2.05,3.05-2.05h3.7v1.85A3.843,3.843,0,0,1-212.55-1.7Zm20.85-16.85v7.3a5.638,5.638,0,0,0-4.625-2.125,6.431,6.431,0,0,0-6.7,6.75,6.451,6.451,0,0,0,6.7,6.775A5.6,5.6,0,0,0-191.6-2.1V0h2.3V-18.55Zm-4.425,16.6A4.387,4.387,0,0,1-200.6-6.625a4.366,4.366,0,0,1,4.475-4.65,4.361,4.361,0,0,1,4.45,4.65A4.382,4.382,0,0,1-196.125-1.95Zm17.05,2.1A6.593,6.593,0,0,0-172.2-6.625a6.573,6.573,0,0,0-6.875-6.75,6.593,6.593,0,0,0-6.9,6.75A6.613,6.613,0,0,0-179.075.15Zm0-2.1a4.387,4.387,0,0,1-4.475-4.675,4.366,4.366,0,0,1,4.475-4.65,4.347,4.347,0,0,1,4.45,4.65A4.368,4.368,0,0,1-179.075-1.95Zm27.025-16.6v7.3a5.638,5.638,0,0,0-4.625-2.125,6.431,6.431,0,0,0-6.7,6.75,6.451,6.451,0,0,0,6.7,6.775A5.6,5.6,0,0,0-151.95-2.1V0h2.3V-18.55Zm-4.425,16.6a4.387,4.387,0,0,1-4.475-4.675,4.366,4.366,0,0,1,4.475-4.65,4.361,4.361,0,0,1,4.45,4.65A4.382,4.382,0,0,1-156.475-1.95Zm23.35-4.6c0-4.075-2.725-6.825-6.55-6.825a6.489,6.489,0,0,0-6.65,6.75c0,3.95,2.85,6.775,7.125,6.775A6.651,6.651,0,0,0-133.975-2L-135.3-3.55a4.947,4.947,0,0,1-3.825,1.6,4.488,4.488,0,0,1-4.8-3.875h10.75C-133.15-6.05-133.125-6.35-133.125-6.55Zm-6.55-4.8a4.132,4.132,0,0,1,4.25,3.8h-8.5A4.13,4.13,0,0,1-139.675-11.35Zm18.9.325V-13.25h-2.3V0h2.4V-6.6c0-2.9,1.6-4.475,4.175-4.475a4.238,4.238,0,0,1,.55.025v-2.325C-118.275-13.375-119.925-12.575-120.775-11.025ZM-101.15-6.55c0-4.075-2.725-6.825-6.55-6.825a6.489,6.489,0,0,0-6.65,6.75c0,3.95,2.85,6.775,7.125,6.775A6.651,6.651,0,0,0-102-2l-1.325-1.55a4.947,4.947,0,0,1-3.825,1.6,4.488,4.488,0,0,1-4.8-3.875h10.75C-101.175-6.05-101.15-6.35-101.15-6.55Zm-6.55-4.8a4.132,4.132,0,0,1,4.25,3.8h-8.5A4.13,4.13,0,0,1-107.7-11.35Zm16.9-2.025a5.643,5.643,0,0,0-4.725,2.225v-2.1h-2.3V4.85h2.4V-2A5.659,5.659,0,0,0-90.8.15a6.438,6.438,0,0,0,6.7-6.775A6.431,6.431,0,0,0-90.8-13.375ZM-91-1.95a4.382,4.382,0,0,1-4.45-4.675A4.375,4.375,0,0,1-91-11.275a4.38,4.38,0,0,1,4.475,4.65A4.387,4.387,0,0,1-91-1.95Zm20.175-11.3V-6.4c0,2.85-1.6,4.4-4.1,4.4C-77.2-2-78.5-3.3-78.5-5.9v-7.35h-2.4v7.625c0,3.9,2.275,5.775,5.7,5.775A5.391,5.391,0,0,0-70.7-2V0h2.275V-13.25Zm18.95,6.7c0-4.075-2.725-6.825-6.55-6.825a6.489,6.489,0,0,0-6.65,6.75c0,3.95,2.85,6.775,7.125,6.775A6.651,6.651,0,0,0-52.725-2L-54.05-3.55a4.947,4.947,0,0,1-3.825,1.6,4.488,4.488,0,0,1-4.8-3.875h10.75C-51.9-6.05-51.875-6.35-51.875-6.55Zm-6.55-4.8a4.132,4.132,0,0,1,4.25,3.8h-8.5A4.13,4.13,0,0,1-58.425-11.35ZM-44.75.15c3.525,0,5.725-1.525,5.725-3.925,0-5.15-8.4-2.6-8.4-5.725,0-1.05,1.025-1.825,3.125-1.825a6.92,6.92,0,0,1,3.825,1.05l1.025-1.9a9.641,9.641,0,0,0-4.825-1.2c-3.4,0-5.525,1.6-5.525,3.975,0,5.275,8.375,2.7,8.375,5.675,0,1.125-.925,1.8-3.15,1.8A8.514,8.514,0,0,1-49.225-3.3l-1,1.9A9.563,9.563,0,0,0-44.75.15ZM-29.325-2.5a3.023,3.023,0,0,1-1.875.625A1.952,1.952,0,0,1-33.275-4.1v-7.175h3.8V-13.25h-3.8v-2.9h-2.4v2.9h-2.25v1.975h2.25V-4c0,2.675,1.525,4.15,4.2,4.15a4.527,4.527,0,0,0,2.9-.925ZM-20.45.15a6.593,6.593,0,0,0,6.875-6.775,6.573,6.573,0,0,0-6.875-6.75,6.593,6.593,0,0,0-6.9,6.75A6.613,6.613,0,0,0-20.45.15Zm0-2.1a4.387,4.387,0,0,1-4.475-4.675,4.366,4.366,0,0,1,4.475-4.65A4.347,4.347,0,0,1-16-6.625,4.368,4.368,0,0,1-20.45-1.95Zm14,2.1C-2.925.15-.725-1.375-.725-3.775c0-5.15-8.4-2.6-8.4-5.725,0-1.05,1.025-1.825,3.125-1.825a6.92,6.92,0,0,1,3.825,1.05l1.025-1.9a9.641,9.641,0,0,0-4.825-1.2c-3.4,0-5.525,1.6-5.525,3.975,0,5.275,8.375,2.7,8.375,5.675,0,1.125-.925,1.8-3.15,1.8A8.514,8.514,0,0,1-10.925-3.3l-1,1.9A9.563,9.563,0,0,0-6.45.15Z" transform="translate(-325 19061)" fill="#0148ad"/>
    <g id="Ellipse_93" data-name="Ellipse 93" transform="translate(-607 18965)" fill="rgba(255,255,255,0)" stroke="#0148ad" stroke-width="3">
      <ellipse cx="33.5" cy="34" rx="33.5" ry="34" stroke="none"/>
      <ellipse cx="33.5" cy="34" rx="32" ry="32.5" fill="none"/>
    </g>
    <path id="Path_2101" data-name="Path 2101" d="M-17.169-31.624a3.731,3.731,0,0,1-2.655-1.062,3.792,3.792,0,0,1-1.121-2.891,3.792,3.792,0,0,1,1.121-2.891,3.731,3.731,0,0,1,2.655-1.062,3.7,3.7,0,0,1,2.684,1.062,3.847,3.847,0,0,1,1.092,2.891,3.847,3.847,0,0,1-1.092,2.891A3.7,3.7,0,0,1-17.169-31.624Zm-1.239,8.319h-7.906v-4.071H-13.57v16.815q0,4.071,1.121,5.457A4.068,4.068,0,0,0-9.086-3.717,11.457,11.457,0,0,0-5.929-4.13a10.515,10.515,0,0,0,2.271-.885l.708,4.13q-.354.177-1,.442a13.445,13.445,0,0,1-1.5.5q-.855.236-1.888.413A12.73,12.73,0,0,1-9.5.649a11.332,11.332,0,0,1-4.307-.708,6.293,6.293,0,0,1-2.743-2.124A8.752,8.752,0,0,1-18-5.694a25.4,25.4,0,0,1-.413-4.867Z" transform="translate(-559 19017)" fill="#0148ad"/>
  </g>
</svg>
